<?xml version="1.0" encoding="UTF-8" standalone="no"?>
<!-- Uploaded to: SVG Repo, www.svgrepo.com, Generator: SVG Repo Mixer Tools -->

<svg
   width="16"
   height="16"
   viewBox="0 0 0.48 0.48"
   fill="none"
   version="1.1"
   id="svg185"
   sodipodi:docname="favicon.svg"
   inkscape:version="1.2.2 (b0a8486541, 2022-12-01)"
   xmlns:inkscape="http://www.inkscape.org/namespaces/inkscape"
   xmlns:sodipodi="http://sodipodi.sourceforge.net/DTD/sodipodi-0.dtd"
   xmlns="http://www.w3.org/2000/svg"
   xmlns:svg="http://www.w3.org/2000/svg">
  <defs
     id="defs189" />
  <sodipodi:namedview
     id="namedview187"
     pagecolor="#505050"
     bordercolor="#eeeeee"
     borderopacity="1"
     inkscape:showpageshadow="0"
     inkscape:pageopacity="0"
     inkscape:pagecheckerboard="0"
     inkscape:deskcolor="#505050"
     showgrid="false"
     inkscape:zoom="20.88"
     inkscape:cx="2.394636"
     inkscape:cy="10.823755"
     inkscape:window-width="1366"
     inkscape:window-height="703"
     inkscape:window-x="0"
     inkscape:window-y="37"
     inkscape:window-maximized="1"
     inkscape:current-layer="layer1" />
  <g
     inkscape:groupmode="layer"
     id="layer1"
     inkscape:label="Layer 1">
    <g
       id="g1833"
       transform="matrix(0.52732159,0,0,0.52732159,-0.01311435,-0.0132339)">
      <rect
         style="fill:#fcfdfe;stroke-width:0.116447"
         id="rect488"
         width="0.47999999"
         height="0.47999999"
         x="0"
         y="0"
         ry="0"
         rx="0"
         class="UnoptimicedTransforms"
         transform="matrix(1.3890899,0,0,1.3890899,0.14661842,0.14661847)" />
      <path
         d="M 0.32175901,0.04510302 H 0.15843532 c -0.07094253,0 -0.11323525,0.04229241 -0.11323525,0.11323513 v 0.16312887 c 0,0.0711373 0.04229272,0.11342994 0.11323525,0.11342994 h 0.16312882 c 0.0709424,0 0.11323512,-0.0422925 0.11323512,-0.113235 V 0.15833815 C 0.4349949,0.08739574 0.39270149,0.04510302 0.32175901,0.04510302 Z m -0.0914067,0.29721796 c 0,0.007016 -0.007016,0.0116943 -0.013448,0.008966 -0.0235826,-0.010135 -0.0543762,-0.0194901 -0.075815,-0.0222183 l -0.003703,-3.9131e-4 c -0.011889,-0.001558 -0.0216339,-0.0126693 -0.0216339,-0.0247521 V 0.1538544 c 0,-0.0150069 0.0120832,-0.026116 0.0268958,-0.0249472 0.0243621,0.001947 0.060418,0.0136428 0.083026,0.0265055 0.003119,0.001755 0.004677,0.005068 0.004677,0.00838 z m 0.13408912,-0.03859 c 0,0.0120832 -0.009745,0.0231924 -0.0216336,0.0247519 l -0.004092,3.9132e-4 c -0.0212442,0.002924 -0.051843,0.0120845 -0.0754257,0.0220236 -0.006432,0.002726 -0.013448,-0.001947 -0.013448,-0.008966 V 0.1636012 c 0,-0.003511 0.001754,-0.006822 0.004874,-0.008576 0.0226081,-0.0126691 0.0578845,-0.0239725 0.0818568,-0.026116 h 7.8261e-4 c 0.015007,0 0.0270907,0.0120845 0.0270907,0.0270909 z"
         fill="#292d32"
         id="path183"
         style="display:inline;fill:#314c62;fill-opacity:1;stroke-width:0.0194897"
         class="UnoptimicedTransforms"
         transform="matrix(2.0225293,0,0,2.0225293,-0.00540705,-0.00540702)" />
    </g>
  </g>
</svg>
